<svg xmlns="http://www.w3.org/2000/svg" xmlns:xlink="http://www.w3.org/1999/xlink" width="200" zoomAndPan="magnify" viewBox="0 0 150 37.5" height="50" preserveAspectRatio="xMidYMid meet" version="1.0"><defs><g/></defs><g fill="#ff3131" fill-opacity="1"><g transform="translate(4.126001, 26.880437)"><g><path d="M 8.046875 -11.5625 C 7.765625 -11.945312 7.441406 -12.242188 7.078125 -12.453125 C 6.722656 -12.671875 6.304688 -12.78125 5.828125 -12.78125 C 5.328125 -12.78125 4.898438 -12.613281 4.546875 -12.28125 C 4.191406 -11.957031 4.015625 -11.566406 4.015625 -11.109375 C 4.015625 -10.691406 4.1875 -10.332031 4.53125 -10.03125 C 4.882812 -9.738281 5.398438 -9.460938 6.078125 -9.203125 C 7.253906 -8.722656 8.085938 -8.257812 8.578125 -7.8125 C 9.078125 -7.363281 9.421875 -6.882812 9.609375 -6.375 C 9.796875 -5.863281 9.890625 -5.300781 9.890625 -4.6875 C 9.890625 -3.175781 9.441406 -1.953125 8.546875 -1.015625 C 7.660156 -0.078125 6.484375 0.390625 5.015625 0.390625 C 3.992188 0.390625 3.101562 0.125 2.34375 -0.40625 C 1.59375 -0.9375 0.960938 -1.632812 0.453125 -2.5 L 2.328125 -4.328125 C 2.546875 -3.703125 2.90625 -3.179688 3.40625 -2.765625 C 3.90625 -2.359375 4.4375 -2.15625 5 -2.15625 C 5.550781 -2.15625 6.003906 -2.351562 6.359375 -2.75 C 6.722656 -3.15625 6.90625 -3.675781 6.90625 -4.3125 C 6.90625 -4.863281 6.734375 -5.300781 6.390625 -5.625 C 6.046875 -5.957031 5.539062 -6.253906 4.875 -6.515625 C 3.394531 -7.078125 2.378906 -7.671875 1.828125 -8.296875 C 1.285156 -8.929688 1.015625 -9.757812 1.015625 -10.78125 C 1.015625 -11.5625 1.195312 -12.289062 1.5625 -12.96875 C 1.9375 -13.65625 2.457031 -14.203125 3.125 -14.609375 C 3.789062 -15.015625 4.53125 -15.21875 5.34375 -15.21875 C 6.070312 -15.21875 6.832031 -15.054688 7.625 -14.734375 C 8.414062 -14.410156 9.007812 -14.023438 9.40625 -13.578125 Z M 8.046875 -11.5625 "/></g></g></g><g fill="#ff3131" fill-opacity="1"><g transform="translate(15.497614, 26.880437)"><g><path d="M 3.953125 -14.828125 L 3.953125 -8.984375 L 9.3125 -8.984375 L 9.3125 -14.828125 L 12.203125 -14.828125 L 12.203125 0 L 9.3125 0 L 9.3125 -6.625 L 3.953125 -6.625 L 3.953125 0 L 1.0625 0 L 1.0625 -14.828125 Z M 3.953125 -14.828125 "/></g></g></g><g fill="#ff3131" fill-opacity="1"><g transform="translate(29.780874, 26.880437)"><g><path d="M 0.359375 -7.4375 C 0.359375 -8.925781 0.664062 -10.257812 1.28125 -11.4375 C 1.90625 -12.625 2.78125 -13.550781 3.90625 -14.21875 C 5.03125 -14.882812 6.289062 -15.21875 7.6875 -15.21875 C 9.125 -15.21875 10.40625 -14.875 11.53125 -14.1875 C 12.65625 -13.5 13.519531 -12.5625 14.125 -11.375 C 14.726562 -10.1875 15.03125 -8.875 15.03125 -7.4375 C 15.03125 -5.925781 14.71875 -4.570312 14.09375 -3.375 C 13.46875 -2.1875 12.601562 -1.257812 11.5 -0.59375 C 10.394531 0.0625 9.125 0.390625 7.6875 0.390625 C 6.289062 0.390625 5.035156 0.0664062 3.921875 -0.578125 C 2.816406 -1.222656 1.945312 -2.148438 1.3125 -3.359375 C 0.675781 -4.566406 0.359375 -5.925781 0.359375 -7.4375 Z M 7.671875 -12.375 C 6.441406 -12.375 5.410156 -11.898438 4.578125 -10.953125 C 3.753906 -10.015625 3.34375 -8.878906 3.34375 -7.546875 C 3.34375 -6.066406 3.734375 -4.847656 4.515625 -3.890625 C 5.296875 -2.929688 6.351562 -2.453125 7.6875 -2.453125 C 9.03125 -2.453125 10.09375 -2.929688 10.875 -3.890625 C 11.65625 -4.847656 12.046875 -6.066406 12.046875 -7.546875 C 12.046875 -8.890625 11.628906 -10.03125 10.796875 -10.96875 C 9.972656 -11.90625 8.929688 -12.375 7.671875 -12.375 Z M 7.671875 -12.375 "/></g></g></g><g fill="#ff3131" fill-opacity="1"><g transform="translate(46.188846, 26.880437)"><g><path d="M 5.09375 -14.828125 C 6.757812 -14.828125 8.015625 -14.441406 8.859375 -13.671875 C 9.703125 -12.910156 10.125 -11.765625 10.125 -10.234375 C 10.125 -8.660156 9.710938 -7.484375 8.890625 -6.703125 C 8.066406 -5.929688 6.929688 -5.546875 5.484375 -5.546875 L 3.953125 -5.546875 L 3.953125 0 L 1.0625 0 L 1.0625 -14.828125 Z M 3.953125 -7.953125 L 4.578125 -7.953125 C 5.484375 -7.953125 6.144531 -8.101562 6.5625 -8.40625 C 6.976562 -8.71875 7.1875 -9.332031 7.1875 -10.25 C 7.1875 -11.0625 6.984375 -11.628906 6.578125 -11.953125 C 6.179688 -12.273438 5.53125 -12.4375 4.625 -12.4375 L 3.953125 -12.4375 Z M 3.953125 -7.953125 "/></g></g></g><g fill="#ff3131" fill-opacity="1"><g transform="translate(57.59981, 26.880437)"><g><path d="M 3.953125 -14.828125 L 3.953125 -2.515625 L 8.046875 -2.515625 L 8.046875 0 L 1.0625 0 L 1.0625 -14.828125 Z M 3.953125 -14.828125 "/></g></g></g><g fill="#ff3131" fill-opacity="1"><g transform="translate(66.531933, 26.880437)"><g><path d="M 0.359375 -7.4375 C 0.359375 -8.925781 0.664062 -10.257812 1.28125 -11.4375 C 1.90625 -12.625 2.78125 -13.550781 3.90625 -14.21875 C 5.03125 -14.882812 6.289062 -15.21875 7.6875 -15.21875 C 9.125 -15.21875 10.40625 -14.875 11.53125 -14.1875 C 12.65625 -13.5 13.519531 -12.5625 14.125 -11.375 C 14.726562 -10.1875 15.03125 -8.875 15.03125 -7.4375 C 15.03125 -5.925781 14.71875 -4.570312 14.09375 -3.375 C 13.46875 -2.1875 12.601562 -1.257812 11.5 -0.59375 C 10.394531 0.0625 9.125 0.390625 7.6875 0.390625 C 6.289062 0.390625 5.035156 0.0664062 3.921875 -0.578125 C 2.816406 -1.222656 1.945312 -2.148438 1.3125 -3.359375 C 0.675781 -4.566406 0.359375 -5.925781 0.359375 -7.4375 Z M 7.671875 -12.375 C 6.441406 -12.375 5.410156 -11.898438 4.578125 -10.953125 C 3.753906 -10.015625 3.34375 -8.878906 3.34375 -7.546875 C 3.34375 -6.066406 3.734375 -4.847656 4.515625 -3.890625 C 5.296875 -2.929688 6.351562 -2.453125 7.6875 -2.453125 C 9.03125 -2.453125 10.09375 -2.929688 10.875 -3.890625 C 11.65625 -4.847656 12.046875 -6.066406 12.046875 -7.546875 C 12.046875 -8.890625 11.628906 -10.03125 10.796875 -10.96875 C 9.972656 -11.90625 8.929688 -12.375 7.671875 -12.375 Z M 7.671875 -12.375 "/></g></g></g><g fill="#ff3131" fill-opacity="1"><g transform="translate(82.939905, 26.880437)"><g><path d="M 3.953125 -14.828125 L 3.953125 -2.515625 L 8.046875 -2.515625 L 8.046875 0 L 1.0625 0 L 1.0625 -14.828125 Z M 3.953125 -14.828125 "/></g></g></g><g fill="#ff3131" fill-opacity="1"><g transform="translate(91.872028, 26.880437)"><g><path d="M 2.859375 0.390625 C 2.367188 0.390625 1.953125 0.21875 1.609375 -0.125 C 1.273438 -0.476562 1.109375 -0.894531 1.109375 -1.375 C 1.109375 -1.863281 1.273438 -2.273438 1.609375 -2.609375 C 1.953125 -2.941406 2.367188 -3.109375 2.859375 -3.109375 C 3.335938 -3.109375 3.75 -2.941406 4.09375 -2.609375 C 4.4375 -2.273438 4.609375 -1.863281 4.609375 -1.375 C 4.609375 -0.894531 4.4375 -0.476562 4.09375 -0.125 C 3.75 0.21875 3.335938 0.390625 2.859375 0.390625 Z M 2.859375 0.390625 "/></g></g></g><g fill="#ff3131" fill-opacity="1"><g transform="translate(98.581075, 26.880437)"><g><path d="M 8.421875 -14.828125 L 8.421875 -12.3125 L 3.953125 -12.3125 L 3.953125 -9.046875 L 8.140625 -9.046875 L 8.140625 -6.53125 L 3.953125 -6.53125 L 3.953125 0 L 1.0625 0 L 1.0625 -14.828125 Z M 8.421875 -14.828125 "/></g></g></g><g fill="#ff3131" fill-opacity="1"><g transform="translate(108.713269, 26.880437)"><g><path d="M 7.84375 -15.21875 L 13.46875 0 L 10.390625 0 L 9.25 -3.125 L 4.09375 -3.125 L 2.875 0 L -0.171875 0 L 5.609375 -15.21875 Z M 4.921875 -5.484375 L 8.4375 -5.484375 L 6.59375 -10.875 L 6.546875 -10.875 Z M 4.921875 -5.484375 "/></g></g></g><g fill="#ff3131" fill-opacity="1"><g transform="translate(123.035861, 26.880437)"><g><path d="M 3.953125 -14.828125 L 3.953125 -8.578125 L 4 -8.578125 L 8.578125 -14.828125 L 12.140625 -14.828125 L 6.515625 -7.984375 L 12.453125 0 L 8.734375 0 L 4 -6.671875 L 3.953125 -6.671875 L 3.953125 0 L 1.0625 0 L 1.0625 -14.828125 Z M 3.953125 -14.828125 "/></g></g></g><g fill="#ff3131" fill-opacity="1"><g transform="translate(136.256765, 26.880437)"><g><path d="M 8.734375 -14.828125 L 8.734375 -12.3125 L 3.953125 -12.3125 L 3.953125 -9.046875 L 8.5625 -9.046875 L 8.5625 -6.53125 L 3.953125 -6.53125 L 3.953125 -2.515625 L 8.734375 -2.515625 L 8.734375 0 L 1.0625 0 L 1.0625 -14.828125 Z M 8.734375 -14.828125 "/></g></g></g></svg>