<svg xmlns="http://www.w3.org/2000/svg" xmlns:xlink="http://www.w3.org/1999/xlink" width="500" zoomAndPan="magnify" viewBox="0 0 375 374.999991" height="500" preserveAspectRatio="xMidYMid meet" version="1.0"><defs><g/><clipPath id="bc511b43f2"><path d="M 41.4375 37.5 L 333.9375 37.5 L 333.9375 337.5 L 41.4375 337.5 Z M 41.4375 37.5 " clip-rule="nonzero"/></clipPath></defs><path fill="#ff3131" d="M 229.949219 146.828125 C 217.789062 141.625 199.75 147.46875 198.984375 147.722656 C 198.324219 147.941406 197.789062 148.4375 197.527344 149.085938 C 197.265625 149.734375 197.296875 150.460938 197.621094 151.082031 C 197.960938 151.738281 206.117188 167.203125 217.035156 170.90625 C 220.195312 171.972656 223.863281 172.351562 227.476562 172.351562 C 236.097656 172.351562 244.429688 170.195312 244.921875 170.066406 C 245.539062 169.902344 246.0625 169.5 246.378906 168.949219 C 246.695312 168.394531 246.78125 167.738281 246.609375 167.125 C 246.441406 166.515625 242.320312 152.128906 229.949219 146.828125 Z M 218.5625 166.394531 C 211.839844 164.117188 205.96875 155.726562 203.328125 151.441406 C 208.628906 150.089844 220.175781 147.824219 228.074219 151.207031 C 235.597656 154.429688 239.574219 162.128906 241.171875 166.039062 C 236.332031 167.042969 225.644531 168.789062 218.5625 166.394531 Z M 218.5625 166.394531 " fill-opacity="1" fill-rule="nonzero"/><g clip-path="url(#bc511b43f2)"><path fill="#ff3131" d="M 331.910156 332.355469 L 280.1875 304.984375 C 277.234375 303.417969 275.53125 300.132812 275.945312 296.804688 C 276.800781 289.914062 276.867188 284.140625 276.144531 279.648438 C 275.46875 275.433594 274.191406 271.296875 272.957031 267.292969 C 271.238281 261.71875 269.613281 256.453125 269.613281 251.285156 C 269.613281 247.089844 272.128906 237.535156 276.695312 224.371094 C 277.171875 223 277.410156 221.582031 277.410156 220.160156 C 277.410156 214.628906 273.882812 209.722656 268.636719 207.957031 C 267.789062 207.671875 266.925781 207.480469 266.058594 207.375 C 268.226562 200.878906 269.992188 194.015625 271.351562 186.785156 C 275.871094 162.730469 275.960938 134.117188 271.621094 101.742188 C 271.554688 101.253906 271.339844 100.796875 271.003906 100.433594 C 261.582031 90.339844 249.828125 82.832031 236.066406 78.089844 C 222.621094 51.160156 198.894531 37.5 165.519531 37.5 C 140.621094 37.5 120.929688 45.195312 106.996094 60.378906 C 82.464844 87.101562 80.613281 131.203125 83.386719 163.515625 C 85.929688 189.496094 91.449219 211.167969 98.527344 222.96875 C 104.058594 232.1875 116.457031 245.863281 133.492188 254.722656 L 133.492188 266.773438 C 133.492188 271.046875 130.605469 274.808594 126.46875 275.914062 C 116.148438 278.675781 96.488281 284.742188 80.78125 294.363281 C 57.785156 308.445312 42.597656 332.839844 41.960938 333.871094 C 41.507812 334.605469 41.488281 335.527344 41.910156 336.285156 C 42.332031 337.035156 43.128906 337.5 43.988281 337.5 C 43.992188 337.5 43.992188 337.5 43.996094 337.5 L 233.847656 336.839844 C 235.007812 336.835938 236 335.992188 236.1875 334.847656 C 236.378906 333.703125 235.714844 332.585938 234.617188 332.207031 L 168.179688 309.289062 C 165.148438 308.242188 163.386719 304.984375 164.171875 301.871094 C 164.871094 299.09375 167.355469 297.152344 170.214844 297.152344 C 170.699219 297.152344 171.191406 297.214844 171.679688 297.328125 C 171.679688 297.328125 171.683594 297.328125 171.683594 297.328125 L 171.722656 297.339844 C 171.726562 297.339844 171.726562 297.339844 171.730469 297.339844 C 171.734375 297.339844 171.734375 297.34375 171.742188 297.34375 L 216.34375 308.566406 C 216.535156 308.613281 216.730469 308.636719 216.925781 308.636719 C 217.992188 308.636719 218.960938 307.917969 219.230469 306.835938 C 219.554688 305.5625 218.777344 304.269531 217.503906 303.949219 L 172.917969 292.730469 C 172.910156 292.726562 172.902344 292.726562 172.894531 292.722656 C 172.890625 292.722656 172.886719 292.722656 172.882812 292.71875 L 165.871094 290.957031 C 164.347656 290.574219 163.0625 289.621094 162.257812 288.273438 C 161.453125 286.925781 161.21875 285.34375 161.601562 283.820312 C 162.261719 281.199219 164.605469 279.367188 167.304688 279.367188 C 167.640625 279.367188 168 279.402344 168.359375 279.46875 C 168.386719 279.472656 168.410156 279.46875 168.433594 279.472656 L 220.371094 292.539062 C 220.566406 292.589844 220.761719 292.613281 220.953125 292.613281 C 222.019531 292.613281 222.988281 291.894531 223.261719 290.8125 C 223.582031 289.539062 222.808594 288.242188 221.535156 287.921875 L 157.324219 271.769531 C 154.179688 270.976562 152.261719 267.773438 153.054688 264.625 C 153.378906 263.328125 154.109375 262.214844 155.183594 261.398438 C 156.59375 260.3125 158.511719 259.933594 160.195312 260.363281 L 224.402344 276.515625 C 225.679688 276.839844 226.972656 276.0625 227.292969 274.789062 C 227.613281 273.515625 226.839844 272.222656 225.5625 271.898438 L 169.574219 257.8125 L 169.574219 257.808594 C 166.957031 257.152344 165.128906 254.8125 165.128906 252.113281 C 165.128906 251.621094 165.191406 251.136719 165.308594 250.667969 C 165.59375 249.523438 166.214844 248.503906 167.097656 247.714844 C 168.558594 246.417969 170.558594 245.929688 172.449219 246.40625 L 222.664062 259.035156 C 227.191406 260.175781 231.933594 259.007812 235.347656 255.90625 C 248.085938 244.351562 257.804688 229.660156 264.402344 212.046875 C 265.316406 212.03125 266.222656 212.171875 267.113281 212.472656 C 270.425781 213.585938 272.648438 216.675781 272.648438 220.160156 C 272.648438 221.054688 272.496094 221.949219 272.195312 222.816406 C 267.320312 236.859375 264.851562 246.4375 264.851562 251.285156 C 264.851562 257.171875 266.65625 263.03125 268.40625 268.699219 C 269.59375 272.542969 270.820312 276.519531 271.441406 280.402344 C 272.082031 284.398438 272.007812 289.867188 271.21875 296.214844 C 270.558594 301.492188 273.265625 306.707031 277.957031 309.195312 L 329.683594 336.5625 C 330.039062 336.75 330.417969 336.839844 330.792969 336.839844 C 331.648438 336.839844 332.472656 336.378906 332.902344 335.570312 C 333.515625 334.410156 333.074219 332.96875 331.910156 332.355469 Z M 110.757812 142.179688 C 115.5 140.777344 126.015625 138.15625 133.261719 139.960938 C 140.148438 141.667969 146.691406 149.546875 149.679688 153.601562 C 144.507812 155.382812 133.1875 158.59375 125.039062 155.878906 C 117.269531 153.289062 112.671875 145.945312 110.757812 142.179688 Z M 163.136719 230.730469 C 146.261719 230.109375 135.734375 222.761719 131.761719 208.84375 C 137.960938 213.292969 149.15625 219.644531 163.136719 220.308594 Z M 167.898438 205.246094 C 184.773438 205.867188 195.300781 213.214844 199.277344 227.132812 C 193.074219 222.683594 181.882812 216.332031 167.898438 215.667969 Z M 232.148438 252.378906 C 229.917969 254.40625 226.804688 255.167969 223.824219 254.417969 L 173.609375 241.785156 C 172.75 241.570312 171.878906 241.464844 171.011719 241.464844 C 169.953125 241.464844 168.90625 241.625 167.898438 241.929688 L 167.898438 220.441406 C 187.207031 221.476562 201.132812 234.730469 201.277344 234.867188 C 201.730469 235.308594 202.328125 235.542969 202.9375 235.542969 C 203.296875 235.542969 203.664062 235.457031 204.003906 235.289062 C 204.910156 234.832031 205.429688 233.851562 205.296875 232.84375 C 202.566406 212.378906 189.652344 201.230469 167.898438 200.476562 L 167.898438 77.945312 C 191.777344 75.226562 211.5625 76.125 228.328125 80.683594 C 230.183594 81.191406 231.964844 81.726562 233.625 82.28125 C 246.777344 86.664062 258.003906 93.675781 267.003906 103.132812 C 271.171875 134.695312 271.0625 162.539062 266.671875 185.90625 C 261.390625 214.023438 249.777344 236.386719 232.148438 252.378906 Z M 232.148438 252.378906 " fill-opacity="1" fill-rule="nonzero"/></g><g fill="#ff3131" fill-opacity="1"><g transform="translate(130.21753, 100.532396)"><g><path d="M 3.4375 0.15625 C 2.613281 0.15625 1.96875 -0.0507812 1.5 -0.46875 C 1.03125 -0.894531 0.796875 -1.472656 0.796875 -2.203125 C 0.796875 -3.023438 1.097656 -3.640625 1.703125 -4.046875 C 2.304688 -4.453125 3.222656 -4.675781 4.453125 -4.71875 L 5.78125 -4.765625 L 5.78125 -5.96875 C 5.78125 -6.5625 5.742188 -7.050781 5.671875 -7.4375 C 5.609375 -7.820312 5.46875 -8.109375 5.25 -8.296875 C 5.039062 -8.484375 4.71875 -8.578125 4.28125 -8.578125 C 3.664062 -8.578125 3.269531 -8.382812 3.09375 -8 C 2.914062 -7.613281 2.828125 -7.007812 2.828125 -6.1875 C 2.378906 -6.1875 2.039062 -6.257812 1.8125 -6.40625 C 1.582031 -6.5625 1.46875 -6.8125 1.46875 -7.15625 C 1.46875 -7.539062 1.597656 -7.847656 1.859375 -8.078125 C 2.117188 -8.304688 2.460938 -8.472656 2.890625 -8.578125 C 3.328125 -8.679688 3.816406 -8.734375 4.359375 -8.734375 C 5.335938 -8.734375 6.066406 -8.523438 6.546875 -8.109375 C 7.035156 -7.691406 7.28125 -6.976562 7.28125 -5.96875 L 7.28125 -1.1875 C 7.28125 -0.800781 7.351562 -0.53125 7.5 -0.375 C 7.65625 -0.226562 7.910156 -0.15625 8.265625 -0.15625 L 8.3125 -0.15625 L 8.3125 0 L 5.90625 0 L 5.90625 -1.6875 L 5.875 -1.6875 C 5.695312 -1.039062 5.390625 -0.570312 4.953125 -0.28125 C 4.523438 0.0078125 4.019531 0.15625 3.4375 0.15625 Z M 3.765625 -0.0625 C 4.160156 -0.0625 4.507812 -0.160156 4.8125 -0.359375 C 5.113281 -0.566406 5.347656 -0.84375 5.515625 -1.1875 C 5.691406 -1.53125 5.78125 -1.894531 5.78125 -2.28125 L 5.78125 -4.59375 L 4.75 -4.546875 C 3.84375 -4.503906 3.21875 -4.296875 2.875 -3.921875 C 2.53125 -3.546875 2.359375 -2.914062 2.359375 -2.03125 C 2.359375 -0.71875 2.828125 -0.0625 3.765625 -0.0625 Z M 3.765625 -0.0625 "/></g></g></g></svg>